<?xml version="1.0" encoding="UTF-8"?> <svg xmlns="http://www.w3.org/2000/svg" width="1135" height="1024" shape-rendering="geometricPrecision" text-rendering="geometricPrecision" image-rendering="optimizeQuality" fill-rule="evenodd" clip-rule="evenodd"><path fill="#e50204" d="M531 10c128-5 246 27 353 97 70 49 126 111 170 185 29 52 50 108 62 168 7 38 9 76 6 115-3 15-9 29-17 42-10 13-21 26-33 37l-61 50c-16 13-28 27-39 44a442 442 0 0 1-813-1c-14-21-30-39-48-55l-47-37c-27-22-44-49-53-82-3-125 32-237 105-336A564 564 0 0 1 531 10Z"></path><path fill="#f6e500" d="M534 47c8-2 17 0 25 4 12 13 11 25-1 37 3 1 5 3 7 7l4 25c2 1 3 3 4 6h-20l-4-24-3-5c-9-1-18 0-26 1l2 31-17 1-5-80 34-3Z"></path><path fill="#f7e500" d="m632 50 16 2 3 3 17 82-18-3-3-17-28-4c-4 5-8 10-10 16l-17-4 40-75Z"></path><path fill="#e50004" d="M526 62c7-1 14 0 21 1l2 4v10l-5 4-25 3-1-21 8-1Z"></path><path fill="#f6e500" d="M716 67c6 1 11 3 17 7l11 61 19-51 15 5a3348 3348 0 0 1-29 76l-15-6-11-63a1168 1168 0 0 0-20 52l-14-6 27-75Z"></path><path fill="#e50004" d="m638 71 6 30-19-1 13-29Z"></path><path fill="#f6e500" d="M368 85c2-1 4 1 5 4l22 55 36-13c3 4 5 9 6 15a700 700 0 0 0-53 18l-28-73c3-3 7-5 12-6Z"></path><path fill="#f7e500" d="M824 120c21 0 35 9 43 29v15l-2 5-13-8c0-18-8-26-25-25-13 5-20 14-24 27-2 16 6 25 23 26l11-5v-3l-14-9 8-11 28 18-24 37-9-6c0-3 1-6 3-8-16 2-28-3-38-15-9-18-7-34 5-49 7-10 16-16 28-18Z"></path><path fill="#f7e600" d="M295 122h3l65 52-15 10-12-10a667 667 0 0 0-25 15l3 16-16 10-18-82c4-4 9-8 15-11Z"></path><path fill="#e50504" d="m298 143 24 21-15 10-9-31Z"></path><path fill="#fefefe" d="M542 150a424 424 0 0 1 435 512 422 422 0 1 1-435-512Z"></path><path fill="#6f201a" d="M612 274c2 8 6 16 10 25a4146 4146 0 0 0 59 157 8780 8780 0 0 0 182 69l120 45a26207 26207 0 0 1-303 116c-11 27-21 55-30 83a983 983 0 0 0-38 99l-46 119a9884 9884 0 0 0-83-218l-32-83-80-31-2 1-2-2a9519 9519 0 0 1-214-84c1-2 4-3 7-4a6967 6967 0 0 0 209-82l1 4c27-12 55-22 83-31a6282 6282 0 0 0 57-158l2-2a4580 4580 0 0 1 54-143l46 120Z"></path><path fill="#f6e500" d="M229 168c2 0 3 2 3 5l14 50 21 21-13 12-20-22-54-17 14-14 35 12c-5-11-9-23-12-34 3-5 7-9 12-13Z"></path><path fill="#f7e500" d="m913 176 42 42-10 10-30-29-11 11 27 27-10 11a514 514 0 0 1-29-27c-6 4-9 9-12 15l30 30-10 10-43-43 56-57Z"></path><path fill="#f7e900" d="m569 182 105 276-105 105V182Z"></path><path fill="#1a3791" d="m492 279 18 20-27 74-69-8-1-3-2-48-5-124 86 89ZM721 313l-2 52-69 8c-10-25-20-50-28-74l18-19 84-88-3 121Z"></path><path fill="#f7e500" d="M982 252a870 870 0 0 0 27 36c6 14 2 26-12 33-7 2-12 2-18-1 1 4 0 8-3 12l-15 11c-3 2-5 5-6 9-5-5-8-11-11-16l20-17v-7l-12-19-26 17-9-14 65-44ZM158 257c18 0 32 7 44 21 12 21 9 39-10 55-15 9-29 8-43-1-28-18-32-39-11-65 5-5 12-9 20-10Z"></path><path fill="#e50004" d="M156 274c16-1 28 6 36 21 3 13-1 22-14 27-14 0-25-5-33-15-8-15-4-26 11-33Z"></path><path fill="#f7e605" d="M521 274a331 331 0 0 0-11 25l-18-20c9-3 19-4 29-5Z"></path><path fill="#f7e606" d="M612 274c9 0 19 2 28 6l-18 19c-4-9-8-17-10-25Z"></path><path fill="#e50004" d="M979 274c1-1 2 0 3 1l12 19c1 9-3 13-12 13l-4-2-14-20 15-11Z"></path><path fill="#f7e802" d="m411 314 2 48v3l-59-6a233 233 0 0 1 57-45Z"></path><path fill="#f6e500" d="M1025 348c10 0 18 4 24 14s8 21 5 33c-2 6-7 10-13 13-3-5-5-9-6-14 8-10 7-20-2-29-8-3-12 0-12 8l4 30c-3 17-13 24-30 21-10-4-17-11-20-20-7-14-6-26 4-38l8-4 7 14c-9 5-10 13-6 22 2 6 6 9 12 11 6-1 9-4 8-10l-3-19c-4-18 2-29 20-32ZM104 350c13-1 21 6 24 20 6-5 12-6 20-3 6 4 13 5 21 6l-7 16-25-6c-5 0-9 3-10 9l-5 14 4 3 23 10c-1 5-3 11-6 16-24-11-49-20-73-29 4-16 10-31 17-45 4-6 10-10 17-11Z"></path><path fill="#f7e802" d="m354 359 7 59-52-2c12-22 27-41 45-57Z"></path><path fill="#e50104" d="m354 359 59 6v-3l1 3 69 8-30 84c-28 9-56 19-83 31l-1-4a4453 4453 0 0 1-15-125ZM772 419l-8 69-84-32-30-83 69-8 59-6-6 60Z"></path><path fill="#f7e802" d="M721 313a310 310 0 0 1 103 105c-18-1-35 0-52 1l6-60-59 6 2-52Z"></path><path fill="#e50004" d="M103 368c12-1 16 5 12 17-3 5-5 11-6 17l-20-8c2-8 6-15 9-22l5-4Z"></path><path fill="#1a3791" d="m309 416 52 2a4453 4453 0 0 0 7 70l-74 27a40799 40799 0 0 0-108-103l123 4ZM857 499l-18 17-75-28 8-69a3365 3365 0 0 1 175-3l-90 83Z"></path><path fill="#6e2019" d="M1006 437c14-1 20 6 17 21-5 7-12 8-20 5-10-10-9-19 3-26Z"></path><path fill="#e40104" d="M1006 440c11-2 16 3 15 15-4 7-9 9-16 6-9-8-8-15 1-21Z"></path><path fill="#6e2019" d="M1015 443c2 3 3 6 3 11l-13 5c-1-2 0-3 1-3 4-2 5-4 3-7l-5 1-2-2 13-5Z"></path><path fill="#e40104" d="M1012 447c3 0 4 2 4 6h-4v-6Z"></path><path fill="#f7e900" d="m558 566-125 2-252-1 274-104 103 103Z"></path><path fill="#f7e605" d="M276 498a40799 40799 0 0 1 16 19l-23 8a362 362 0 0 1 7-27Z"></path><path fill="#f7e606" d="m857 499 1 1 5 25-24-9 18-17Z"></path><path fill="#df9403" d="m558 566 1 1-126 1 125-2ZM952 575Z"></path><path fill="#f7e900" d="M952 575 678 679 575 575c125-2 251-2 377 0ZM563 578l-1 379-104-273c34-36 69-72 105-106Z"></path><path fill="#df9403" d="M563 578Z"></path><path fill="#f7e605" d="m269 617 25 9c-7 5-13 11-19 18l-6-27Z"></path><path fill="#f7e606" d="m864 616-6 28-19-18c8-4 16-8 25-10Z"></path><path fill="#1b3791" d="M294 626a9519 9519 0 0 0 75 30l-8 67-52 2-123 3a10451 10451 0 0 1 108-102Z"></path><path fill="#1a3791" d="M839 626a54328 54328 0 0 1 108 102 5103 5103 0 0 1-173-4c-2-2-2-3-2-5l-8-65 75-28Z"></path><path fill="#e50104" d="M764 654a3922 3922 0 0 1 14 124l-1 5a3858 3858 0 0 0-127-14c9-28 19-56 30-83 28-12 55-23 84-32ZM483 769l-70 7-59 7 7-60a9166 9166 0 0 1 10-68l80 31 32 83Z"></path><path fill="#f7e803" d="m361 723-7 60c-18-18-33-37-45-58l52-2Z"></path><path fill="#1a3791" d="M483 769a372234 372234 0 0 1 27 75l-16 17-86 90a3155 3155 0 0 1 5-175l70-7ZM650 769l69 7 1 48c1 42 3 84 3 127a10451 10451 0 0 1-101-108c8-26 17-50 28-74Z"></path><path fill="#f7e703" d="M413 776a1276 1276 0 0 0-3 52c-21-13-40-28-56-45l59-7Z"></path><path fill="#f7e803" d="m774 724 50 1c-26 42-60 76-102 103l-2-4-1-48 58 7 1-5a3614 3614 0 0 0-4-54Z"></path><path fill="#f7e605" d="M510 844c1 0 3 1 3 4l7 19-21-4c-3 0-4-1-5-2l16-17Z"></path><path fill="#f7e506" d="m622 843 17 19-27 6c2-9 5-18 10-25Z"></path></svg> 